<?xml version="1.0" standalone="no"?>
<!DOCTYPE svg PUBLIC "-//W3C//DTD SVG 1.1//EN" "http://www.w3.org/Graphics/SVG/1.1/DTD/svg11.dtd">
<svg version="1.1" viewBox="0 0 1000 571.429">
<rect width="100%" height="100%" fill="white"/>
<polyline fill="none" stroke="black" stroke-width="0.5" points="614.286,485.714 585.714,485.714 557.143,485.714 528.571,485.714 528.571,457.143 500,457.143 500,485.714 471.429,485.714 471.429,457.143 442.857,457.143 442.857,485.714 414.286,485.714 357.143,485.714 328.571,485.714 300,485.714 271.429,485.714 242.857,485.714 214.286,485.714 185.714,485.714 150,471.429 114.286,471.429 114.286,528.571 150,528.571 185.714,571.429 214.286,542.857 214.286,571.429 242.857,571.429 271.429,571.429 300,571.429 328.571,542.857 328.571,571.429 357.143,571.429 414.286,571.429 442.857,571.429 471.429,571.429 500,571.429 528.571,571.429 557.143,571.429 585.714,571.429 614.286,542.857 657.143,542.857 657.143,571.429 707.143,557.143 742.857,528.571 657.143,514.286 657.143,485.714 657.143,457.143 657.143,428.571 657.143,400 657.143,371.429 657.143,342.857 657.143,314.286 657.143,285.714 657.143,257.143 657.143,228.571 657.143,200 657.143,171.429 714.286,142.857 742.857,114.286 771.429,114.286 771.429,142.857 800,114.286 828.571,85.7143 828.571,114.286 828.571,142.857 828.571,171.429 828.571,200 857.143,192.857 885.714,192.857 914.286,171.429 914.286,200 914.286,228.571 885.714,228.571 857.143,228.571 828.571,228.571 828.571,257.143 828.571,285.714 857.143,264.286 885.714,264.286 914.286,257.143 914.286,285.714 942.857,285.714 914.286,314.286 885.714,321.429 857.143,321.429 828.571,314.286 828.571,342.857 828.571,371.429 828.571,400 828.571,428.571 828.571,457.143 828.571,485.714 828.571,514.286 800,528.571 800,557.143 828.571,571.429 828.571,542.857 885.714,542.857 885.714,571.429 914.286,571.429 914.286,542.857 914.286,514.286 885.714,514.286 885.714,485.714 914.286,485.714 914.286,457.143 885.714,457.143 885.714,428.571 914.286,428.571 914.286,400 885.714,400 885.714,371.429 914.286,371.429 971.429,357.143 1000,357.143 971.429,314.286 1000,314.286 1000,285.714 1000,257.143 1000,228.571 1000,200 971.429,171.429 1000,171.429 1000,142.857 1000,114.286 942.857,128.571 914.286,114.286 914.286,142.857 885.714,150 857.143,150 871.429,121.429 871.429,92.8571 871.429,64.2857 914.286,57.1429 942.857,57.1429 971.429,57.1429 971.429,28.5714 942.857,28.5714 914.286,28.5714 871.429,7.14286 828.571,0 828.571,28.5714 828.571,57.1429 800,42.8571 771.429,57.1429 742.857,57.1429 742.857,57.1429 771.429,0 742.857,0 700,0 657.143,28.5714 657.143,57.1429 657.143,85.7143 657.143,114.286 657.143,142.857 585.714,157.143 585.714,128.571 585.714,100 585.714,71.4286 557.143,42.8571 585.714,42.8571 600,0 571.429,0 542.857,0 500,0 450,0 471.429,57.1429 414.286,42.8571 385.714,42.8571 385.714,71.4286 414.286,71.4286 414.286,100 414.286,128.571 414.286,157.143 414.286,185.714 385.714,185.714 385.714,157.143 385.714,128.571 385.714,100 357.143,114.286 328.571,142.857 300,171.429 271.429,200 242.857,228.571 214.286,214.286 214.286,242.857 185.714,242.857 185.714,214.286 185.714,185.714 214.286,185.714 214.286,157.143 185.714,157.143 185.714,128.571 214.286,128.571 214.286,100 185.714,100 185.714,71.4286 214.286,71.4286 214.286,42.8571 185.714,42.8571 128.571,42.8571 100,71.4286 100,100 100,128.571 100,157.143 100,185.714 100,214.286 100,242.857 100,271.429 100,300 71.4286,314.286 42.8571,328.571 42.8571,300 42.8571,271.429 42.8571,242.857 42.8571,214.286 42.8571,185.714 42.8571,157.143 14.2857,157.143 14.2857,185.714 14.2857,214.286 14.2857,242.857 14.2857,271.429 14.2857,300 14.2857,328.571 28.5714,357.143 0,357.143 0,428.571 0,500 28.5714,442.857 64.2857,442.857 100,428.571 128.571,414.286 100,357.143 128.571,328.571 185.714,328.571 185.714,300 185.714,271.429 214.286,271.429 214.286,300 214.286,328.571 214.286,357.143 214.286,385.714 214.286,414.286 242.857,414.286 271.429,385.714 300,357.143 328.571,328.571 357.143,300 385.714,300 385.714,328.571 385.714,357.143 385.714,385.714 385.714,414.286 414.286,414.286 414.286,385.714 414.286,357.143 414.286,328.571 414.286,300 414.286,271.429 385.714,271.429 385.714,242.857 385.714,214.286 414.286,214.286 414.286,242.857 442.857,257.143 500,271.429 528.571,200 557.143,185.714 585.714,185.714 585.714,214.286 585.714,242.857 557.143,257.143 585.714,271.429 585.714,300 585.714,328.571 585.714,357.143 585.714,385.714 585.714,414.286 557.143,457.143 614.286,485.714"/>
</svg>