<?xml version="1.0" standalone="no"?>
<!DOCTYPE svg PUBLIC "-//W3C//DTD SVG 1.1//EN" "http://www.w3.org/Graphics/SVG/1.1/DTD/svg11.dtd">
<svg version="1.1" viewBox="0 0 1000 3200.96">
<rect width="100%" height="100%" fill="white"/>
<polyline fill="none" stroke="black" stroke-width="0.5" points="818.738,1958.32 704.493,1880.21 700.669,1880.31 691.3,1883.75 680.497,1882.5 672.849,1854.02 653.442,1855.74 641.778,1814.63 657.17,1793.79 672.562,1785.28 752.39,1720.84 750.574,1767.3 766.348,1777.63 787.38,1776.48 789.388,1836.81 809.943,1803.15 826.291,1788.43 809.273,1749.9 844.073,1767.11 891.396,1775.33 893.595,1804.4 886.329,1815.39 886.329,1815.39 924.857,1798.47 963.098,1681.74 828.298,1539.2 723.423,1631.84 682.505,1652.1 681.74,1651.05 601.53,1681.26 526.577,1649.81 527.055,1585.66 603.728,1596.37 639.484,1594.65 639.866,1567.69 598.853,1573.33 581.358,1536.81 582.696,1527.53 583.748,1517.21 583.748,1517.21 590.822,1505.26 592.83,1472.18 583.365,1408.51 562.046,1380.78 552.772,1378.39 515.774,1349.43 503.92,1340.82 484.799,1290.44 469.407,1357.36 523.709,1429.54 525.335,1493.69 515.01,1526.29 427.055,1556.6 407.17,1602.77 383.939,1642.64 335.564,1698.95 305.545,1746.27 283.174,1730.31 277.151,1765.3 295.698,1774.57 292.639,1797.61 312.046,1825.33 296.845,1861.28 306.597,1852.01 321.893,1843.59 324.187,1853.35 340.153,1846.46 336.042,1836.33 361.185,1840.92 354.493,1804.88 399.14,1816.25 416.635,1816.63 459.656,1795.51 495.22,1815.3 554.015,1834.23 559.943,1874.09 574.283,1902.29 622.849,1938.24 544.073,1936.52 533.748,1918.26 522.562,1936.62 495.889,1928.11 503.92,1913.38 496.941,1874.76 438.432,1880.21 409.656,1883.08 408.604,1950.19 391.969,1985.18 391.969,1987.86 401.53,1997.04 410.134,2025.14 401.625,2033.94 401.052,2034.32 418.738,2062.33 382.696,2043.69 361.663,2006.79 363.576,1961.09 353.155,1966.44 325.239,1928.2 325.239,1928.2 321.224,1944.07 303.537,1995.6 256.883,1984.32 258.987,1821.7 263.767,1816.06 254.015,1778.59 229.637,1769.02 218.547,1755.35 218.164,1755.35 219.312,1776.67 199.809,1796.94 162.046,1798.28 130.402,1767.5 110.707,1862.33 110.707,1862.33 73.327,1794.65 66.6348,1741.2 74.283,1674 74.283,1674 84.2256,1660.61 93.3078,1680.02 123.614,1680.98 143.977,1702.96 163.576,1692.35 190.153,1689.29 216.73,1699.24 226.291,1680.21 237.285,1679.83 227.916,1660.9 220.841,1651.63 227.438,1632.6 238.05,1641.11 245.507,1624.38 245.411,1622.37 245.411,1622.37 253.728,1631.55 254.589,1641.78 247.61,1652.68 249.331,1663.67 256.692,1671.03 255.927,1674.19 248.184,1692.35 244.551,1710.61 236.52,1728.39 256.692,1722.08 265.679,1693.12 269.216,1669.22 273.614,1660.61 278.394,1653.35 285.66,1650 277.82,1631.07 283.078,1623.71 293.212,1616.92 293.021,1603.15 303.155,1606.12 304.589,1624.47 302.486,1642.83 332.314,1631.36 321.606,1606.31 321.224,1583.27 341.874,1564.44 293.881,1536.14 293.212,1577.82 267.782,1592.64 256.023,1584.32 254.493,1595.22 244.837,1587.28 237.572,1587.28 237.38,1595.03 227.055,1604.11 226.291,1612.52 221.319,1624.47 220.268,1621.32 218.356,1613.1 209.56,1606.88 208.126,1622.08 208.126,1622.08 208.987,1622.94 207.075,1633.17 201.052,1642.73 210.612,1643.4 207.553,1659.56 200.191,1654.11 192.734,1652.1 182.505,1662.33 182.218,1660.42 181.836,1641.11 188.145,1630.5 182.409,1615.39 170.746,1611.85 163.48,1641.59 153.728,1634.89 152.199,1623.33 152.103,1622.28 142.83,1633.37 142.161,1632.79 142.161,1632.79 141.683,1632.22 142.256,1596.27 135.086,1587.28 131.74,1601.82 112.046,1593.12 113.576,1603.73 112.715,1624.67 113.098,1632.6 104.971,1625.81 96.5583,1597.13 82.5048,1557.65 66.826,1555.26 72.8489,1605.35 67.304,1611.85 67.304,1611.85 0,1642.16 29.4455,1300 34.13,1292.35 140.918,1424.47 149.713,1426.96 132.887,1447.42 122.084,1447.51 111.281,1465.49 111.281,1465.49 110.803,1475.43 95.9847,1485.95 116.061,1492.73 122.849,1494.26 130.402,1492.93 133.365,1482.03 133.365,1485.56 132.6,1496.65 140.153,1494.84 140.153,1494.84 142.352,1492.35 151.53,1483.75 152.294,1482.98 152.199,1476.39 159.847,1475.14 159.56,1491.78 153.633,1505.16 153.633,1505.16 151.816,1503.63 151.816,1503.63 149.426,1504.11 143.69,1507.27 141.013,1517.4 151.338,1507.55 151.338,1507.55 151.243,1510.23 152.486,1517.78 153.346,1530.31 160.803,1535.37 158.891,1547.23 153.442,1547.13 149.044,1546.94 143.212,1548.85 151.912,1556.21 160.421,1556.6 158.795,1558.51 152.868,1567.88 159.082,1574 163.862,1585.95 179.254,1593.5 180.115,1576.77 182.505,1575.24 188.432,1575.62 189.388,1576.2 190.057,1585.85 197.036,1576 210.707,1576.86 208.222,1586.81 208.031,1594.55 209.273,1593.79 209.273,1593.79 219.025,1587.48 219.025,1587.48 227.151,1574.38 227.82,1569.02 228.489,1555.26 227.629,1540.44 216.157,1550 208.795,1546.18 207.648,1549.81 209.751,1555.93 206.501,1564.15 200.956,1564.24 191.205,1554.49 181.358,1563.96 173.136,1564.34 170.076,1564.72 171.797,1544.74 179.063,1527.53 179.063,1527.53 177.629,1527.92 173.518,1528.49 171.033,1526 171.511,1507.17 172.371,1485.95 180.593,1465.58 182.792,1492.45 191.874,1493.21 190.249,1510.33 198.948,1507.93 208.031,1504.4 208.031,1504.4 216.635,1502.1 228.298,1493.59 228.776,1503.82 229.924,1506.21 229.924,1506.21 227.438,1517.97 244.933,1529.73 248.375,1525.81 266.061,1529.54 273.805,1517.88 277.151,1502.96 266.444,1503.44 246.272,1496.37 256.883,1474.28 246.08,1463.1 228.489,1453.63 235.373,1427.34 248.757,1425.81 274.379,1419.41 288.241,1433.75 285.851,1453.25 293.595,1448.47 303.346,1453.15 294.073,1465.11 287.285,1473.04 293.021,1484.99 303.824,1502.68 306.405,1472.75 340.727,1466.73 316.73,1444.55 323.423,1435.47 324.474,1435.95 342.161,1429.45 353.059,1417.02 369.025,1378.49 371.797,1376.96 378.585,1360.61 371.606,1351.34 371.606,1351.34 292.352,1266.25 275.813,1234.42 180.21,1269.12 189.197,1004.78 177.725,986.711 216.348,900.956 334.034,890.344 287.572,776.769 273.327,767.495 273.327,767.495 273.901,769.885 268.164,775.813 264.245,787.763 255.641,797.801 255.258,803.346 256.023,803.92 256.023,803.92 244.742,813.958 238.432,827.438 216.826,851.338 197.706,825.143 209.178,804.111 209.178,804.111 207.935,798.566 210.038,785.373 227.055,747.323 230.402,755.067 235.277,756.883 256.788,740.057 247.706,726.96 239.006,716.73 239.293,710.707 239.197,709.656 244.455,669.312 244.455,669.312 274.474,643.69 265.01,682.409 259.273,712.333 268.356,701.243 268.929,701.243 302.294,707.648 322.18,700.191 323.327,679.732 363.767,731.549 371.319,729.924 371.893,730.019 398.47,739.771 402.868,767.4 474.187,775.048 466.73,816.252 467.495,842.734 467.495,875.143 478.776,918.547 487.572,919.981 504.876,923.04 513.48,927.151 517.4,939.293 543.021,921.033 581.836,950.287 599.14,1006.98 671.128,932.6 796.08,1006.21 790.44,1051.63 719.312,1175.91 761.95,1141.01 857.17,1093.69 857.17,1093.69 861.95,1056.12 861.95,1056.12 875.526,995.507 885.277,987.285 882.409,958.317 923.423,995.507 971.893,970.65 971.797,948.662 971.797,948.662 953.25,928.107 959.751,832.505 797.897,855.067 756.883,769.407 662.046,745.889 642.83,757.744 610.899,777.247 599.809,797.897 543.021,869.598 543.021,869.598 526.195,850.669 524.474,836.902 543.212,823.231 541.874,793.786 543.881,786.233 555.545,748.757 555.736,748.662 550.382,702.008 550.478,701.625 526.673,682.983 508.031,673.136 513.767,654.685 504.971,642.734 484.799,555.449 457.935,559.369 445.507,651.434 359.178,644.264 359.178,595.315 361.759,566.635 331.74,586.138 331.358,583.556 304.971,574.474 296.176,593.021 268.547,604.111 267.495,603.346 249.426,592.734 216.348,615.87 189.484,576.291 168.356,577.533 207.266,470.172 254.589,439.579 264.818,506.883 302.868,538.528 306.119,536.616 311.377,489.293 341.109,491.3 324.092,435.373 297.514,405.927 331.931,386.616 321.224,375.813 321.128,375.813 286.233,344.073 284.799,337.667 190.153,338.145 172.562,329.35 153.824,416.252 133.556,422.562 25.5258,95.9847 57.935,76.0994 439.388,0 808.891,3200.96 995.889,3174.19 902.581,2969.41 893.021,2903.35 909.943,2895.98 962.906,2950.76 978.489,2931.84 1000,2888.05 999.713,2887.76 971.702,2829.16 943.786,2611.19 722.849,2606.6 724.092,2702.49 759.178,2754.02 730.688,2912.81 701.147,2992.16 507.266,2893.88 303.155,2846.85 304.302,2839.48 304.302,2839.48 312.524,2799.43 330.784,2744.84 285.182,2715.39 259.178,2618.64 344.551,2664.91 353.346,2658.32 391.491,2724.76 402.677,2666.16 428.489,2655.07 421.128,2588.05 429.924,2597.23 505.258,2663.1 601.243,2596.08 700.287,2524.47 630.497,2496.08 612.62,2474.95 533.748,2505.35 523.423,2471.89 512.524,2465.68 483.939,2424.86 407.075,2381.26 417.782,2368.83 428.011,2350.1 379.924,2320.94 258.795,2293.98 248.279,2168.16 313.767,2167.02 323.04,2204.68 371.128,2243.02 407.457,2147.61 459.943,2199.52 521.893,2246.18 517.782,2272.08 574.092,2266.54 602.772,2207.17 684.13,2034.99 835.755,2055.07 818.738,1958.32"/>
</svg>