<?xml version="1.0" standalone="no"?>
<!DOCTYPE svg PUBLIC "-//W3C//DTD SVG 1.1//EN" "http://www.w3.org/Graphics/SVG/1.1/DTD/svg11.dtd">
<svg version="1.1" viewBox="0 0 1000 1686.87">
<rect width="100%" height="100%" fill="white"/>
<polyline fill="none" stroke="black" stroke-width="0.5" points="515.152,939.394 505.051,949.495 515.152,1060.61 515.152,1070.71 515.152,1080.81 515.152,1090.91 444.444,1252.53 424.242,1252.53 515.152,1333.33 515.152,1343.43 505.051,1363.64 515.152,1383.84 515.152,1393.94 515.152,1424.24 515.152,1434.34 515.152,1444.44 515.152,1494.95 515.152,1515.15 515.152,1545.45 434.343,1535.35 424.242,1535.35 363.636,1515.15 363.636,1494.95 353.535,1434.34 363.636,1424.24 363.636,1393.94 353.535,1373.74 363.636,1333.33 282.828,1424.24 252.525,1393.94 252.525,1373.74 252.525,1343.43 252.525,1323.23 282.828,1282.83 282.828,1272.73 252.525,1262.63 252.525,1202.02 252.525,1161.62 252.525,1121.21 252.525,1080.81 191.919,1060.61 181.818,1131.31 181.818,1171.72 151.515,1161.62 151.515,1202.02 151.515,1262.63 131.313,1282.83 191.919,1303.03 191.919,1333.33 191.919,1363.64 151.515,1343.43 151.515,1373.74 151.515,1393.94 131.313,1424.24 191.919,1484.85 121.212,1585.86 191.919,1616.16 282.828,1585.86 252.525,1636.36 292.929,1686.87 454.545,1686.87 575.758,1686.87 616.162,1606.06 616.162,1565.66 616.162,1515.15 616.162,1464.65 616.162,1424.24 616.162,1363.64 616.162,1323.23 646.465,1333.33 646.465,1292.93 656.566,1222.22 717.172,1242.42 717.172,1282.83 717.172,1323.23 717.172,1363.64 717.172,1424.24 686.869,1434.34 717.172,1464.65 717.172,1515.15 676.768,1545.45 666.667,1555.56 676.768,1575.76 666.667,1595.96 676.768,1616.16 717.172,1616.16 717.172,1575.76 858.586,1686.87 888.889,1575.76 828.283,1515.15 848.485,1484.85 848.485,1464.65 848.485,1434.34 888.889,1424.24 888.889,1454.55 979.798,1515.15 949.495,1484.85 949.495,1464.65 949.495,1434.34 979.798,1404.04 979.798,1383.84 949.495,1323.23 949.495,1282.83 949.495,1222.22 909.091,1252.53 898.99,1262.63 909.091,1282.83 898.99,1303.03 909.091,1323.23 888.889,1343.43 848.485,1313.13 848.485,1272.73 848.485,1222.22 848.485,1171.72 848.485,1131.31 828.283,1050.51 888.889,1070.71 878.788,1101.01 919.192,1141.41 949.495,1171.72 949.495,1131.31 949.495,1090.91 1000,1090.91 979.798,1050.51 979.798,1040.4 1000,979.798 979.798,939.394 979.798,909.091 979.798,898.99 979.798,878.788 979.798,858.586 949.495,828.283 898.99,929.293 888.889,929.293 828.283,909.091 828.283,878.788 828.283,858.586 818.182,707.071 848.485,646.465 888.889,737.374 888.889,767.677 949.495,787.879 949.495,757.576 1000,717.172 979.798,707.071 969.697,636.364 979.798,626.263 1000,606.061 979.798,525.253 1000,494.949 979.798,494.949 969.697,474.747 979.798,464.646 979.798,353.535 1000,333.333 979.798,323.232 969.697,303.03 979.798,292.929 1000,282.828 1000,242.424 1000,232.323 1000,222.222 1000,212.121 1000,202.02 979.798,222.222 979.798,202.02 969.697,191.919 979.798,181.818 979.798,121.212 979.798,111.111 949.495,80.8081 909.091,101.01 878.788,50.5051 848.485,80.8081 848.485,111.111 828.283,202.02 848.485,303.03 828.283,323.232 747.475,353.535 747.475,373.737 747.475,404.04 818.182,383.838 848.485,474.747 828.283,494.949 818.182,555.556 747.475,525.253 737.374,535.354 747.475,545.455 747.475,606.061 747.475,626.263 717.172,656.566 717.172,686.869 717.172,707.071 747.475,747.475 747.475,757.576 747.475,787.879 747.475,797.98 737.374,818.182 747.475,838.384 747.475,848.485 747.475,878.788 747.475,888.889 747.475,898.99 747.475,949.495 747.475,969.697 747.475,1000 747.475,1010.1 737.374,1030.3 747.475,1050.51 747.475,1060.61 747.475,1090.91 747.475,1101.01 747.475,1111.11 747.475,1161.62 656.566,1181.82 595.96,1161.62 585.859,1101.01 595.96,1090.91 595.96,1060.61 585.859,1040.4 595.96,1000 595.96,969.697 595.96,949.495 585.859,888.889 595.96,878.788 595.96,848.485 585.859,828.283 595.96,787.879 595.96,757.576 616.162,707.071 616.162,686.869 616.162,656.566 656.566,676.768 656.566,646.465 656.566,565.657 656.566,525.253 616.162,535.354 595.96,545.455 585.859,434.343 595.96,373.737 616.162,363.636 595.96,252.525 616.162,242.424 747.475,282.828 747.475,252.525 747.475,212.121 747.475,171.717 747.475,141.414 747.475,121.212 747.475,111.111 747.475,60.6061 676.768,101.01 616.162,111.111 595.96,141.414 595.96,60.6061 454.545,0 424.242,50.5051 424.242,90.9091 434.343,90.9091 484.848,70.7071 515.152,101.01 515.152,171.717 515.152,181.818 505.051,202.02 515.152,222.222 515.152,232.323 515.152,262.626 515.152,272.727 515.152,282.828 515.152,333.333 515.152,353.535 515.152,383.838 515.152,393.939 505.051,414.141 515.152,434.343 515.152,444.444 515.152,474.747 515.152,484.848 515.152,494.949 515.152,545.455 515.152,565.657 424.242,585.859 363.636,565.657 363.636,545.455 353.535,484.848 363.636,474.747 363.636,444.444 353.535,424.242 363.636,383.838 363.636,353.535 363.636,333.333 353.535,272.727 363.636,262.626 363.636,232.323 353.535,212.121 363.636,171.717 373.737,101.01 282.828,90.9091 252.525,60.6061 191.919,50.5051 151.515,60.6061 131.313,90.9091 191.919,151.515 282.828,252.525 282.828,282.828 282.828,292.929 282.828,353.535 282.828,373.737 282.828,393.939 282.828,404.04 222.222,424.242 252.525,454.545 252.525,505.051 212.121,535.354 202.02,545.455 151.515,555.556 151.515,505.051 151.515,454.545 131.313,404.04 191.919,313.131 131.313,292.929 121.212,252.525 0,171.717 0,343.434 0,515.152 0,686.869 0,858.586 0,1030.3 0,1050.51 131.313,1040.4 131.313,1020.2 121.212,959.596 131.313,949.495 131.313,919.192 121.212,898.99 131.313,858.586 131.313,828.283 131.313,808.081 121.212,747.475 131.313,737.374 131.313,707.071 121.212,686.869 131.313,646.465 151.515,595.96 212.121,606.061 202.02,585.859 212.121,565.657 252.525,565.657 252.525,606.061 282.828,646.465 282.828,656.566 272.727,676.768 282.828,696.97 282.828,707.071 282.828,737.374 282.828,747.475 282.828,757.576 282.828,808.081 282.828,828.283 282.828,858.586 282.828,868.687 272.727,888.889 282.828,909.091 282.828,919.192 282.828,949.495 282.828,959.596 282.828,969.697 282.828,1020.2 282.828,1040.4 353.535,1090.91 363.636,1080.81 363.636,1060.61 353.535,959.596 353.535,898.99 353.535,787.879 363.636,797.98 515.152,797.98 515.152,808.081 515.152,909.091 515.152,919.192 515.152,939.394"/>
</svg>