<?xml version="1.0" standalone="no"?>
<!DOCTYPE svg PUBLIC "-//W3C//DTD SVG 1.1//EN" "http://www.w3.org/Graphics/SVG/1.1/DTD/svg11.dtd">
<svg version="1.1" viewBox="0 0 1000 1367.06">
<rect width="100%" height="100%" fill="white"/>
<polyline fill="none" stroke="black" stroke-width="0.5" points="528.77,682.54 549.603,682.54 570.437,682.54 591.27,674.603 588.624,708.333 690.146,708.333 692.791,674.603 786.376,682.54 796.958,682.54 809.854,682.54 825.397,708.333 828.042,674.603 809.854,630.291 796.958,630.291 786.376,630.291 737.103,588.624 786.376,570.437 796.958,570.437 809.854,570.106 872.354,588.624 973.876,588.624 929.563,674.603 927.249,708.333 953.042,867.394 963.624,888.228 1000,929.894 989.749,929.894 950.397,929.233 940.146,929.233 901.124,929.233 890.542,929.233 862.103,888.228 851.521,867.394 846.23,958.333 820.437,979.167 809.854,953.373 799.603,953.373 789.021,953.373 768.188,979.167 752.646,968.915 742.063,963.624 726.521,888.228 716.27,867.394 614.749,867.394 625,888.228 598.876,974.206 552.249,963.624 487.103,1002.65 507.937,1002.65 528.77,1002.65 549.603,1002.65 570.437,1002.65 635.582,1028.77 570.437,1070.44 549.603,1070.44 528.77,1070.44 507.937,1070.44 487.103,1070.44 487.103,1122.69 507.937,1122.69 528.77,1122.69 549.603,1122.69 570.437,1122.69 591.27,1114.75 588.624,1148.48 690.146,1148.48 692.791,1114.75 786.376,1122.69 796.958,1122.69 809.854,1122.69 825.397,1148.48 828.042,1114.75 809.854,1070.44 796.958,1070.44 786.376,1070.44 737.103,1028.77 786.376,1010.58 796.958,1010.58 809.854,1010.25 872.354,1028.77 973.876,1028.77 929.563,1114.75 927.249,1148.48 953.042,1307.54 963.624,1328.37 862.103,1328.37 851.521,1307.54 726.521,1328.37 716.27,1307.54 625,1328.37 614.749,1307.54 460.979,1367.06 421.958,1328.37 411.376,1307.54 320.437,1328.37 309.854,1307.54 184.854,1328.37 174.603,1307.54 83.3333,1328.37 73.082,1307.54 23.4788,1328.37 46.9577,1148.48 49.6032,1114.75 148.479,1148.48 151.124,1114.75 93.9153,1028.77 109.458,929.233 99.2063,929.233 59.8545,929.233 49.6032,929.233 10.582,929.233 0,929.233 23.4788,888.228 73.082,867.394 83.3333,888.228 174.603,867.394 184.854,888.228 200.728,953.373 226.521,979.167 226.521,958.333 239.749,953.373 250,953.373 278.77,953.373 286.706,968.915 296.958,974.206 330.688,1028.77 268.188,1010.58 255.291,1010.58 245.04,1010.58 195.437,1028.77 245.04,1070.44 255.291,1070.44 268.188,1070.44 245.04,1122.69 255.291,1122.69 268.188,1122.69 286.706,1114.75 284.061,1148.48 385.582,1148.48 388.228,1114.75 432.209,1028.77 448.082,968.915 421.958,888.228 411.376,867.394 320.437,888.228 309.854,867.394 385.582,708.333 388.228,674.603 432.209,588.624 448.082,528.77 421.958,448.082 411.376,427.249 320.437,448.082 309.854,427.249 174.603,427.249 184.854,448.082 200.728,513.228 226.521,539.021 226.521,518.188 239.749,513.228 250,513.228 278.77,513.228 286.706,528.77 296.958,534.061 330.688,588.624 268.188,570.437 255.291,570.437 245.04,570.437 195.437,588.624 245.04,630.291 255.291,630.291 268.188,630.291 286.706,674.603 284.061,708.333 268.188,682.54 255.291,682.54 245.04,682.54 151.124,674.603 148.479,708.333 46.9577,708.333 49.6032,674.603 93.9153,588.624 109.458,489.087 99.2063,489.087 59.8545,489.087 49.6032,489.087 10.582,489.087 0,489.087 23.4788,448.082 83.3333,448.082 73.082,427.249 46.9577,268.188 49.6032,234.458 148.479,268.188 151.124,234.458 93.9153,148.479 0,48.9418 10.582,48.9418 49.6032,48.9418 59.8545,48.9418 99.2063,48.9418 109.458,48.9418 200.728,73.082 226.521,98.8757 226.521,78.0423 239.749,73.082 250,73.082 278.77,73.082 286.706,88.6243 296.958,93.9153 330.688,148.479 268.188,130.291 255.291,130.291 245.04,130.291 195.437,148.479 245.04,190.146 255.291,190.146 268.188,190.146 245.04,242.394 255.291,242.394 268.188,242.394 286.706,234.458 284.061,268.188 385.582,268.188 388.228,234.458 432.209,148.479 448.082,88.6243 487.103,122.354 507.937,122.354 528.77,122.354 549.603,122.354 570.437,122.354 552.249,83.3333 526.124,0 552.249,0 598.876,93.9153 635.582,148.479 570.437,190.146 549.603,190.146 528.77,190.146 507.937,190.146 487.103,190.146 487.103,242.394 507.937,242.394 528.77,242.394 549.603,242.394 570.437,242.394 591.27,234.458 588.624,268.188 690.146,268.188 692.791,234.458 786.376,242.394 796.958,242.394 809.854,242.394 825.397,268.188 828.042,234.458 786.376,190.146 796.958,190.146 809.854,190.146 872.354,148.479 809.854,129.96 796.958,130.291 786.376,130.291 737.103,148.479 742.063,83.3333 752.646,88.6243 768.188,98.8757 789.021,73.082 799.603,73.082 809.854,73.082 820.437,98.8757 846.23,78.0423 890.542,48.9418 901.124,48.9418 940.146,48.9418 950.397,48.9418 989.749,49.6032 1000,49.6032 973.876,148.479 929.563,234.458 927.249,268.188 953.042,427.249 963.624,448.082 1000,489.749 989.749,489.749 950.397,489.087 940.146,489.087 901.124,489.087 890.542,489.087 862.103,448.082 851.521,427.249 846.23,518.188 820.437,539.021 809.854,513.228 799.603,513.228 789.021,513.228 768.188,539.021 752.646,528.77 742.063,523.479 726.521,448.082 716.27,427.249 614.749,427.249 625,448.082 598.876,534.061 552.249,523.479 487.103,562.5 507.937,562.5 528.77,562.5 549.603,562.5 570.437,562.5 635.582,588.624 570.437,630.291 549.603,630.291 528.77,630.291 507.937,630.291 487.103,630.291 487.103,682.54 507.937,682.54 528.77,682.54"/>
</svg>