<?xml version="1.0" standalone="no"?>
<!DOCTYPE svg PUBLIC "-//W3C//DTD SVG 1.1//EN" "http://www.w3.org/Graphics/SVG/1.1/DTD/svg11.dtd">
<svg version="1.1" viewBox="0 0 1000 1266.67">
<rect width="100%" height="100%" fill="white"/>
<polyline fill="none" stroke="black" stroke-width="0.5" points="333.333,933.333 333.333,966.667 333.333,1000 366.667,1000 333.333,1033.33 316.667,1050 300,1066.67 283.333,1083.33 266.667,1066.67 226.667,1050 240,1083.33 233.333,1133.33 233.333,1166.67 333.333,1166.67 366.667,1173.33 390.333,1150 403.333,1110 426.667,1136.33 433.333,1200 466.667,1200 500,1200 533.333,1200 566.667,1200 600,1200 633.333,1200 666.667,1200 700,1200 733.333,1200 766.667,1200 793.333,1216.67 793.333,1236.33 866.667,1200 933.333,1200 950,1183.33 950,1166.67 933.333,1166.67 933.333,1133.33 933.333,1100 900,1100 900,1133.33 900,1166.67 866.667,1166.67 843.667,1150 866.667,1133.33 843.667,1116.67 866.667,1100 866.667,1066.67 900,1066.67 933.333,1066.67 933.333,1033.33 933.333,1000 933.333,966.667 933.333,933.333 933.333,900 900,900 900,866.667 933.333,866.667 933.333,833.333 900,833.333 900,800 933.333,800 933.333,766.667 900,766.667 900,733.333 933.333,733.333 933.333,700 900,700 866.667,700 866.667,733.333 866.667,766.667 820,776.667 820,810 866.667,800 866.667,833.333 843.667,850 866.667,866.667 866.667,900 866.667,933.333 900,933.333 900,966.667 866.667,966.667 866.667,1000 900,1000 900,1033.33 866.667,1033.33 833.333,1033.33 826.667,1066.67 766.667,1100 733.333,1100 700,1100 666.667,1100 633.333,1100 600,1100 566.667,1100 533.333,1100 500,1100 466.667,1100 466.667,1000 500,1000 533.333,1000 566.667,1000 600,1000 633.333,1000 666.667,1000 700,1000 733.333,1000 766.667,1000 766.667,900 750,850 733.333,866.667 733.333,900 700,900 696.667,866.667 666.667,866.667 666.667,900 633.333,900 600,900 566.667,900 533.333,900 533.333,940 533.333,966.667 500,953.333 500,933.333 500,900 466.667,900 436.667,893.333 390.333,933.333 390.333,900 426.667,870 403.333,860 400,800 433.333,800 466.667,800 500,800 533.333,800 533.333,833.333 566.667,800 600,800 633.333,800 666.667,800 700,800 733.333,800 766.667,800 716.667,760 683.333,740 610,760 593.333,736.667 566.667,733.333 550,713.333 566.667,700 600,700 633.333,700 666.667,700 700,700 733.333,700 766.667,700 823.333,700 866.667,666.667 900,666.667 933.333,666.667 933.333,633.333 933.333,600 900,600 900,633.333 866.667,633.333 833.333,609.667 866.667,600 866.667,566.667 900,566.667 933.333,566.667 933.333,533.333 900,533.333 866.667,533.333 833.333,500 866.667,500 900,500 933.333,500 933.333,466.667 933.333,433.333 933.333,400 900,400 900,433.333 900,466.667 866.667,466.667 866.667,433.333 866.667,400 866.667,366.667 866.667,333.333 866.667,300 900,300 900,333.333 900,366.667 933.333,366.667 933.333,333.333 933.333,300 933.333,266.667 933.333,233.333 933.333,200 900,200 900,233.333 900,266.667 866.667,266.667 866.667,233.333 866.667,200 866.667,166.667 900,166.667 933.333,166.667 933.333,133.333 1000,0 900,133.333 866.667,133.333 800,133.333 766.667,100 733.333,100 700,100 666.667,100 633.333,100 600,100 566.667,100 533.333,100 483.333,100 430,103.333 400,100 366.667,100 333.333,100 333.333,123.333 300,100 266.667,100 233.333,100 200,100 166.667,100 133.333,133.333 133.333,166.667 83.3333,173.333 33.3333,133.333 33.3333,166.667 0,233.333 0,266.667 0,300 23.3333,316.667 0,333.333 0,366.667 0,400 0,433.333 33.3333,466.667 0,500 0,533.333 0,566.667 16.6667,583.333 0,600 0,633.333 0,666.667 16.6667,683.333 0,700 0,733.333 0,766.667 33.3333,800 0,833.333 0,866.667 0,900 0,933.333 0,966.667 33.3333,1000 0,1000 0,1033.33 0,1066.67 0,1100 0,1133.33 0,1166.67 0,1200 0,1233.33 0,1266.67 100,1266.67 100,1233.33 126.667,1216.67 100,1200 100,1166.67 133.333,1133.33 100,1133.33 50,1116.67 100,1100 100,1066.67 100,1033.33 133.333,1033.33 133.333,1000 100,1000 100,966.667 133.333,966.667 133.333,933.333 133.333,900 133.333,866.667 100,900 100,933.333 50,900 100,866.667 100,833.333 133.333,833.333 133.333,800 133.333,766.667 100,766.667 80,786.667 50,733.333 100,733.333 100,700 133.333,700 133.333,733.333 200,700 276.667,633.333 296.667,666.667 333.333,666.667 333.333,633.333 333.333,600 333.333,566.667 313.333,550 333.333,533.333 333.333,500 333.333,466.667 226.667,500 236.667,466.667 203.333,433.333 133.333,400 133.333,433.333 133.333,466.667 133.333,500 133.333,533.333 133.333,566.667 133.333,600 133.333,633.333 133.333,666.667 100,666.667 100,633.333 100,600 100,566.667 100,533.333 100,500 100,466.667 100,433.333 100,400 66.6667,376.667 100,366.667 133.333,366.667 133.333,333.333 133.333,300 100,300 100,333.333 66.6667,300 100,266.667 100,233.333 133.333,266.667 166.667,266.667 150,236.667 183.333,236.667 200,200 233.333,200 266.667,200 266.667,156.333 300,200 333.333,200 366.667,200 333.333,266.667 333.333,300 333.333,333.333 333.333,366.667 333.333,400 333.333,433.333 400,410 433.333,400 466.667,433.333 466.667,366.667 450,350 416.667,250 400,200 430,170 483.333,166.667 533.333,200 566.667,200 600,200 633.333,200 666.667,200 700,200 716.667,173.333 750,163.333 766.667,200 733.333,200 716.667,233.333 687,246.667 733.333,343.333 666.667,366.667 650,350 633.333,300 633.333,233.333 566.667,233.333 550,250 516.667,256.667 533.333,310 566.667,376.667 616.667,450 600,500 633.333,500 666.667,543 666.667,500 700,500 733.333,500 766.667,500 766.667,533.333 766.667,600 733.333,600 700,600 666.667,600 633.333,600 600,600 600,566.667 566.667,600 533.333,600 550,566.667 566.667,500 533.333,500 500,500 466.667,500 433.333,500 400,500 400,600 433.333,600 466.667,600 483.333,616.667 500,600 500,633.333 533.333,666.667 533.333,700 500,700 466.667,700 433.333,700 400,700 333.333,700 333.333,733.333 333.333,766.667 333.333,800 333.333,833.333 333.333,866.667 333.333,900 293.333,916.667 260,940 333.333,933.333"/>
</svg>