<?xml version="1.0" standalone="no"?>
<!DOCTYPE svg PUBLIC "-//W3C//DTD SVG 1.1//EN" "http://www.w3.org/Graphics/SVG/1.1/DTD/svg11.dtd">
<svg version="1.1" viewBox="0 0 1000 2125.93">
<rect width="100%" height="100%" fill="white"/>
<polyline fill="none" stroke="black" stroke-width="0.5" points="581.481,796.296 607.407,811.111 640.741,785.185 696.296,777.778 681.481,811.111 640.741,837.037 659.259,888.889 633.333,937.037 614.815,929.63 600,1007.41 581.481,988.889 555.556,925.926 566.667,888.889 559.259,855.556 518.519,859.259 481.481,881.481 462.963,900 437.037,940.741 477.778,955.556 529.63,992.593 518.519,1051.85 481.481,1003.7 444.444,1014.81 422.222,1029.63 407.407,1014.81 381.481,1114.81 340.741,1085.19 329.63,1077.78 303.704,1103.7 296.296,1103.7 259.259,1085.19 203.704,1092.59 181.481,1066.67 122.222,1059.26 88.8889,1074.07 100,1000 114.815,985.185 151.852,1011.11 188.889,1011.11 255.556,1033.33 259.259,1025.93 274.074,985.185 307.407,996.296 340.741,1022.22 351.852,970.37 400,937.037 370.37,929.63 351.852,911.111 318.519,907.407 281.481,903.704 229.63,933.333 222.222,955.556 185.185,955.556 162.963,914.815 148.148,881.481 185.185,888.889 185.185,862.963 222.222,848.148 285.185,814.815 311.111,818.519 292.593,762.963 314.815,744.444 303.704,692.593 285.185,707.407 237.037,714.815 233.333,714.815 192.593,670.37 211.111,644.444 170.37,651.852 155.556,692.593 144.444,733.333 155.556,744.444 188.889,792.593 170.37,814.815 118.519,788.889 100,807.407 100,788.889 66.6667,707.407 88.8889,707.407 125.926,659.259 77.7778,637.037 111.111,570.37 140.741,596.296 162.963,551.852 214.815,500 222.222,470.37 185.185,455.556 196.296,425.926 233.333,411.111 303.704,429.63 329.63,388.889 370.37,414.815 392.593,366.667 429.63,381.481 496.296,351.852 481.481,311.111 448.148,329.63 429.63,318.519 407.407,325.926 344.444,337.037 314.815,337.037 296.296,362.963 259.259,340.741 244.444,337.037 181.481,370.37 162.963,314.815 192.593,281.481 196.296,255.556 177.778,214.815 140.741,229.63 155.556,181.481 122.222,159.259 100,185.185 81.4815,207.407 55.5556,200 33.3333,192.593 11.1111,244.444 40.7407,266.667 74.0741,274.074 88.8889,285.185 111.111,322.222 37.037,344.444 29.6296,344.444 59.2593,374.074 111.111,362.963 144.444,374.074 148.148,429.63 122.222,448.148 81.4815,503.704 77.7778,477.778 66.6667,462.963 14.8148,451.852 11.1111,500 40.7407,522.222 55.5556,581.481 3.7037,622.222 14.8148,674.074 37.037,733.333 18.5185,751.852 0,833.333 44.4444,833.333 59.2593,877.778 74.0741,911.111 62.963,940.741 11.1111,944.444 11.1111,981.481 48.1481,1055.56 14.8148,1085.19 14.8148,1088.89 40.7407,1096.3 81.4815,1185.19 92.5926,1155.56 118.519,1133.33 181.481,1155.56 229.63,1181.48 192.593,1200 144.444,1211.11 174.074,1222.22 185.185,1266.67 174.074,1288.89 118.519,1270.37 88.8889,1296.3 62.963,1288.89 44.4444,1237.04 14.8148,1196.3 7.40741,1251.85 14.8148,1318.52 40.7407,1362.96 14.8148,1396.3 44.4444,1403.7 81.4815,1362.96 118.519,1377.78 185.185,1340.74 222.222,1359.26 222.222,1377.78 222.222,1425.93 225.926,1429.63 240.741,1455.56 214.815,1459.26 159.259,1448.15 148.148,1459.26 111.111,1474.07 92.5926,1459.26 74.0741,1455.56 70.3704,1474.07 14.8148,1496.3 48.1481,1577.78 25.9259,1585.19 40.7407,1614.81 18.5185,1674.07 22.2222,1677.78 55.5556,1681.48 92.5926,1633.33 114.815,1603.7 107.407,1537.04 148.148,1533.33 148.148,1577.78 144.444,1596.3 200,1600 203.704,1625.93 177.778,1655.56 192.593,1707.41 181.481,1755.56 222.222,1803.7 233.333,1800 229.63,1825.93 207.407,1829.63 170.37,1811.11 122.222,1788.89 114.815,1737.04 103.704,1703.7 77.7778,1777.78 74.0741,1781.48 29.6296,1829.63 29.6296,1833.33 88.8889,1859.26 162.963,1877.78 144.444,1900 137.037,1896.3 148.148,1929.63 200,1962.96 229.63,1900 259.259,1903.7 266.667,1933.33 303.704,1962.96 333.333,1977.78 333.333,1981.48 322.222,2022.22 285.185,2000 229.63,2003.7 211.111,2033.33 233.333,2048.15 203.704,2070.37 155.556,2025.93 137.037,1974.07 100,1933.33 62.963,1922.22 66.6667,1907.41 37.037,1907.41 25.9259,1974.07 85.1852,2011.11 66.6667,2040.74 37.037,2085.19 70.3704,2103.7 111.111,2118.52 144.444,2125.93 151.852,2125.93 262.963,2125.93 318.519,2125.93 374.074,2092.59 366.667,2070.37 381.481,2025.93 381.481,1974.07 418.519,2025.93 418.519,2070.37 477.778,2081.48 511.111,2114.81 518.519,2114.81 577.778,2122.22 611.111,2125.93 651.852,2088.89 688.889,2051.85 692.593,2059.26 718.519,2122.22 740.741,2055.56 814.815,2066.67 814.815,2074.07 859.259,2111.11 955.556,2125.93 970.37,2092.59 888.889,2070.37 918.519,2025.93 944.444,1992.59 966.667,2000 948.148,1970.37 996.296,1903.7 992.593,1900 962.963,1840.74 962.963,1825.93 962.963,1800 900,1785.19 888.889,1770.37 881.481,1759.26 822.222,1748.15 788.889,1777.78 740.741,1788.89 718.519,1829.63 766.667,1833.33 751.852,1866.67 785.185,1903.7 792.593,1851.85 822.222,1833.33 851.852,1822.22 892.593,1833.33 888.889,1862.96 896.296,1907.41 851.852,1903.7 844.444,1951.85 855.556,1992.59 825.926,2014.81 807.407,1992.59 762.963,1985.19 748.148,2007.41 733.333,2000 718.519,1959.26 644.444,1988.89 603.704,1996.3 562.963,2044.44 551.852,2044.44 488.889,2025.93 470.37,2000 474.074,1970.37 518.519,1955.56 470.37,1907.41 429.63,1900 407.407,1900 366.667,1877.78 425.926,1862.96 500,1851.85 529.63,1892.59 551.852,1900 566.667,1951.85 596.296,1951.85 618.519,1903.7 648.148,1922.22 696.296,1900 681.481,1866.67 666.667,1874.07 666.667,1833.33 644.444,1781.48 633.333,1759.26 600,1788.89 585.185,1844.44 555.556,1807.41 544.444,1800 507.407,1766.67 481.481,1751.85 429.63,1770.37 392.593,1774.07 355.556,1788.89 307.407,1825.93 266.667,1796.3 311.111,1759.26 303.704,1714.81 270.37,1696.3 259.259,1688.89 259.259,1655.56 233.333,1618.52 255.556,1574.07 340.741,1592.59 333.333,1644.44 325.926,1666.67 355.556,1711.11 388.889,1696.3 433.333,1700 440.741,1655.56 400,1622.22 462.963,1614.81 481.481,1614.81 477.778,1692.59 500,1707.41 529.63,1677.78 585.185,1677.78 611.111,1688.89 633.333,1662.96 607.407,1633.33 544.444,1637.04 559.259,1618.52 559.259,1588.89 522.222,1596.3 511.111,1585.19 477.778,1544.44 459.259,1537.04 444.444,1529.63 437.037,1507.41 392.593,1540.74 355.556,1537.04 314.815,1537.04 281.481,1537.04 288.889,1507.41 322.222,1481.48 385.185,1459.26 407.407,1429.63 374.074,1403.7 344.444,1418.52 292.593,1400 325.926,1381.48 307.407,1333.33 259.259,1314.81 259.259,1274.07 266.667,1259.26 285.185,1211.11 322.222,1159.26 344.444,1200 385.185,1233.33 337.037,1274.07 329.63,1296.3 333.333,1318.52 374.074,1311.11 403.704,1340.74 411.111,1340.74 459.259,1337.04 444.444,1281.48 481.481,1259.26 507.407,1270.37 518.519,1270.37 581.481,1266.67 622.222,1225.93 666.667,1225.93 692.593,1211.11 714.815,1237.04 703.704,1274.07 640.741,1288.89 618.519,1307.41 629.63,1329.63 618.519,1344.44 574.074,1359.26 548.148,1370.37 514.815,1366.67 518.519,1403.7 477.778,1459.26 514.815,1459.26 544.444,1451.85 562.963,1451.85 529.63,1500 577.778,1529.63 603.704,1525.93 611.111,1533.33 644.444,1548.15 692.593,1503.7 659.259,1481.48 622.222,1433.33 651.852,1388.89 685.185,1381.48 703.704,1340.74 703.704,1400 725.926,1400 751.852,1440.74 737.037,1462.96 748.148,1459.26 777.778,1459.26 796.296,1518.52 792.593,1537.04 762.963,1596.3 729.63,1607.41 681.481,1592.59 714.815,1655.56 692.593,1670.37 707.407,1714.81 703.704,1740.74 755.556,1703.7 785.185,1688.89 774.074,1648.15 807.407,1607.41 829.63,1607.41 840.741,1551.85 844.444,1525.93 859.259,1496.3 870.37,1451.85 888.889,1437.04 900,1477.78 907.407,1574.07 877.778,1588.89 881.481,1603.7 888.889,1648.15 907.407,1688.89 955.556,1711.11 966.667,1714.81 970.37,1681.48 959.259,1607.41 966.667,1544.44 951.852,1537.04 974.074,1514.81 955.556,1474.07 985.185,1451.85 951.852,1429.63 944.444,1381.48 996.296,1344.44 981.481,1274.07 940.741,1303.7 888.889,1266.67 888.889,1311.11 851.852,1311.11 870.37,1370.37 837.037,1400 814.815,1381.48 792.593,1377.78 762.963,1333.33 785.185,1311.11 766.667,1255.56 755.556,1225.93 796.296,1181.48 829.63,1192.59 848.148,1151.85 885.185,1218.52 903.704,1233.33 911.111,1214.81 937.037,1200 977.778,1177.78 977.778,1159.26 948.148,1148.15 988.889,1059.26 959.259,1025.93 914.815,1051.85 896.296,1085.19 855.556,1092.59 829.63,1062.96 888.889,1033.33 881.481,1018.52 922.222,944.444 940.741,951.852 966.667,970.37 966.667,940.741 944.444,922.222 888.889,877.778 866.667,922.222 837.037,948.148 814.815,981.481 748.148,992.593 785.185,1048.15 751.852,1055.56 729.63,1088.89 777.778,1144.44 751.852,1162.96 729.63,1151.85 711.111,1159.26 685.185,1148.15 651.852,1133.33 581.481,1181.48 562.963,1159.26 533.333,1174.07 492.593,1185.19 448.148,1203.7 422.222,1177.78 437.037,1166.67 470.37,1122.22 492.593,1092.59 507.407,1118.52 533.333,1125.93 574.074,1092.59 596.296,1092.59 600,1092.59 629.63,1055.56 670.37,1007.41 707.407,977.778 696.296,940.741 692.593,929.63 737.037,911.111 703.704,866.667 751.852,862.963 792.593,874.074 814.815,896.296 825.926,840.741 785.185,848.148 748.148,796.296 748.148,755.556 796.296,722.222 837.037,733.333 837.037,722.222 811.111,666.667 777.778,666.667 777.778,596.296 785.185,607.407 829.63,622.222 866.667,622.222 896.296,659.259 888.889,681.481 888.889,729.63 907.407,733.333 862.963,788.889 914.815,803.704 948.148,825.926 977.778,811.111 944.444,774.074 974.074,714.815 996.296,711.111 959.259,648.148 922.222,640.741 948.148,625.926 988.889,625.926 951.852,574.074 992.593,574.074 1000,492.593 937.037,455.556 925.926,477.778 925.926,492.593 885.185,548.148 829.63,518.519 807.407,518.519 781.481,488.889 774.074,425.926 777.778,403.704 766.667,385.185 777.778,351.852 833.333,333.333 825.926,388.889 844.444,459.259 866.667,418.519 885.185,400 911.111,374.074 937.037,359.259 988.889,374.074 1000,329.63 944.444,311.111 925.926,325.926 885.185,296.296 925.926,277.778 911.111,233.333 970.37,211.111 992.593,129.63 974.074,122.222 951.852,125.926 907.407,129.63 888.889,118.519 903.704,81.4815 948.148,48.1481 962.963,25.9259 951.852,0 892.593,29.6296 855.556,44.4444 818.519,0 803.704,7.40741 770.37,29.6296 711.111,14.8148 674.074,11.1111 674.074,59.2593 629.63,51.8519 640.741,11.1111 611.111,0 592.593,3.7037 544.444,29.6296 529.63,51.8519 514.815,7.40741 477.778,33.3333 481.481,70.3704 440.741,55.5556 381.481,66.6667 381.481,40.7407 355.556,18.5185 303.704,55.5556 259.259,25.9259 255.556,33.3333 259.259,48.1481 244.444,48.1481 188.889,44.4444 185.185,48.1481 144.444,62.963 114.815,0 96.2963,11.1111 59.2593,14.8148 0,3.7037 0,100 62.963,88.8889 92.5926,107.407 177.778,129.63 211.111,125.926 218.519,114.815 259.259,174.074 233.333,192.593 229.63,211.111 274.074,218.519 333.333,248.148 333.333,218.519 337.037,181.481 300,122.222 329.63,107.407 351.852,125.926 411.111,122.222 388.889,144.444 396.296,196.296 429.63,207.407 444.444,174.074 470.37,133.333 474.074,129.63 537.037,148.148 570.37,118.519 625.926,100 651.852,148.148 714.815,129.63 729.63,125.926 744.444,118.519 751.852,159.259 800,118.519 837.037,107.407 829.63,166.667 811.111,196.296 859.259,181.481 862.963,196.296 851.852,240.741 785.185,270.37 781.481,277.778 748.148,222.222 737.037,200 696.296,188.889 688.889,233.333 644.444,229.63 614.815,211.111 603.704,185.185 581.481,188.889 511.111,181.481 481.481,207.407 488.889,237.037 551.852,248.148 555.556,259.259 555.556,274.074 603.704,281.481 581.481,337.037 592.593,359.259 637.037,307.407 670.37,344.444 670.37,351.852 666.667,366.667 722.222,318.519 714.815,385.185 700,422.222 718.519,496.296 740.741,540.741 711.111,537.037 696.296,555.556 688.889,600 718.519,648.148 718.519,685.185 729.63,711.111 681.481,711.111 651.852,688.889 618.519,692.593 648.148,640.741 603.704,622.222 559.259,666.667 570.37,622.222 540.741,600 581.481,574.074 555.556,548.148 551.852,500 596.296,525.926 629.63,522.222 633.333,474.074 618.519,459.259 588.889,425.926 559.259,437.037 533.333,411.111 481.481,425.926 466.667,425.926 440.741,455.556 492.593,485.185 481.481,555.556 488.889,559.259 492.593,566.667 477.778,585.185 414.815,555.556 366.667,566.667 370.37,529.63 370.37,485.185 355.556,496.296 325.926,518.519 281.481,500 277.778,496.296 259.259,537.037 255.556,588.889 296.296,611.111 307.407,618.519 337.037,648.148 351.852,592.593 370.37,603.704 414.815,637.037 451.852,670.37 481.481,674.074 437.037,696.296 414.815,722.222 396.296,685.185 351.852,744.444 385.185,762.963 366.667,800 407.407,822.222 425.926,840.741 437.037,866.667 462.963,822.222 455.556,788.889 518.519,803.704 518.519,781.481 537.037,711.111 555.556,744.444 596.296,774.074 581.481,796.296"/>
</svg>